#tb 0: 1/1000
0,          0,          0,        0,    84480, 0x7760a00b
0,       1208,       1208,        0,    84480, 0xfe39a1db
0,       1250,       1250,        0,    84480, 0xd71961b4
0,       1291,       1291,        0,    84480, 0xc80dedba
0,       1333,       1333,        0,    84480, 0x34d8b538
0,       1375,       1375,        0,    84480, 0x1a86b8e5
0,       1416,       1416,        0,    84480, 0xabf7c25d
0,       1458,       1458,        0,    84480, 0x912600ee
0,       1500,       1500,        0,    84480, 0x7ee7c70b
0,       1541,       1541,        0,    84480, 0x09c5b0d1
0,       1583,       1583,        0,    84480, 0x6dbe6c0c
0,       1625,       1625,        0,    84480, 0x0fe0a120
0,       1666,       1666,        0,    84480, 0x2352d3a2
0,       1708,       1708,        0,    84480, 0xb22ce92e
0,       1750,       1750,        0,    84480, 0x31db0099
0,       1791,       1791,        0,    84480, 0xad2dd73a
0,       1833,       1833,        0,    84480, 0xb9af8e20
0,       1875,       1875,        0,    84480, 0x7b956549
0,       1916,       1916,        0,    84480, 0x3f774b87
0,       1958,       1958,        0,    84480, 0x824a23a3
0,       2000,       2000,        0,    84480, 0x4469a8d8
0,       2041,       2041,        0,    84480, 0xc80c7a0a
0,       2083,       2083,        0,    84480, 0xcf958549
0,       2125,       2125,        0,    84480, 0x449746e3
0,       2166,       2166,        0,    84480, 0xbac66a82
0,       2208,       2208,        0,    84480, 0x99e85855
0,       2250,       2250,        0,    84480, 0xa4a17d17
0,       2291,       2291,        0,    84480, 0xe29c7587
0,       2333,       2333,        0,    84480, 0x551de592
0,       2375,       2375,        0,    84480, 0xe0877bce
0,       2416,       2416,        0,    84480, 0x9660eb35
0,       2458,       2458,        0,    84480, 0x0a34b644
0,       2500,       2500,        0,    84480, 0x352919f0
0,       2541,       2541,        0,    84480, 0xef56ce27
0,       2583,       2583,        0,    84480, 0x030fe862
0,       2625,       2625,        0,    84480, 0x2eba33e2
0,       2666,       2666,        0,    84480, 0x242de401
0,       2708,       2708,        0,    84480, 0xbadd61ca
0,       2750,       2750,        0,    84480, 0x2060465b
0,       2791,       2791,        0,    84480, 0x256e6965
0,       2833,       2833,        0,    84480, 0x243b7084
0,       2875,       2875,        0,    84480, 0x8b3c0b47
0,       2916,       2916,        0,    84480, 0xc174a9af
0,       2958,       2958,        0,    84480, 0xb6d48686
0,       3000,       3000,        0,    84480, 0xa3dd1871
0,       3041,       3041,        0,    84480, 0x04cdcaf7
0,       3083,       3083,        0,    84480, 0x55f89c94
0,       3125,       3125,        0,    84480, 0xda657032
0,       3166,       3166,        0,    84480, 0x38ba7698
0,       3208,       3208,        0,    84480, 0x4d03a7f2
0,       3250,       3250,        0,    84480, 0x115d9035
0,       3291,       3291,        0,    84480, 0x24c6acc6
0,       3333,       3333,        0,    84480, 0xdd2bbcae
0,       3375,       3375,        0,    84480, 0xb4fee0b9
0,       3416,       3416,        0,    84480, 0xc51c14e0
0,       3458,       3458,        0,    84480, 0xfb7737de
0,       3500,       3500,        0,    84480, 0x38675fb0
0,       3541,       3541,        0,    84480, 0x4752c710
0,       3583,       3583,        0,    84480, 0xfeb7491b
0,       3625,       3625,        0,    84480, 0xaa248122
0,       3666,       3666,        0,    84480, 0x9a4af87c
0,       3708,       3708,        0,    84480, 0xedcf09df
0,       3750,       3750,        0,    84480, 0x563a05df
0,       3791,       3791,        0,    84480, 0x0dde1e03
0,       3833,       3833,        0,    84480, 0xd8f0ff65
0,       3875,       3875,        0,    84480, 0xbeb9ae1a
0,       3916,       3916,        0,    84480, 0x416d1468
0,       3958,       3958,        0,    84480, 0x66c87d4c
0,       4000,       4000,        0,    84480, 0xa67c0774
0,       4041,       4041,        0,    84480, 0xd8f8aec1
0,       4083,       4083,        0,    84480, 0xadfa502b
0,       4125,       4125,        0,    84480, 0x50bf20e4
0,       4166,       4166,        0,    84480, 0xbcb3d8cc
0,       4208,       4208,        0,    84480, 0xa54677d7
0,       4250,       4250,        0,    84480, 0x3566042d
0,       4291,       4291,        0,    84480, 0x4c9eed57
0,       4333,       4333,        0,    84480, 0xc3b90e58
0,       4375,       4375,        0,    84480, 0x3c042bfa
0,       4416,       4416,        0,    84480, 0x19f8e890
0,       4458,       4458,        0,    84480, 0xd3dacfb9
0,       4500,       4500,        0,    84480, 0x2365fc6f
0,       4541,       4541,        0,    84480, 0xa2c19d00
0,       4583,       4583,        0,    84480, 0xce94336f
0,       4625,       4625,        0,    84480, 0xfa9bcf14
0,       4916,       4916,        0,    84480, 0x24d6a243
0,       4958,       4958,        0,    84480, 0xae1c8854
0,       5000,       5000,        0,    84480, 0xbb8968bf
0,       5041,       5041,        0,    84480, 0x6f923623
0,       5083,       5083,        0,    84480, 0x22e98029
0,       5125,       5125,        0,    84480, 0x8ac33af3
0,       5166,       5166,        0,    84480, 0x05947b6e
0,       5208,       5208,        0,    84480, 0xfc35661a
0,       5250,       5250,        0,    84480, 0x0e6b6e47
0,       5291,       5291,        0,    84480, 0x82c764bb
0,       5333,       5333,        0,    84480, 0x57a36833
0,       5375,       5375,        0,    84480, 0xc8dd690a
0,       5416,       5416,        0,    84480, 0x02c47232
0,       5458,       5458,        0,    84480, 0x6645715d
0,       5500,       5500,        0,    84480, 0xc64860f7
0,       5541,       5541,        0,    84480, 0x4f5614b3
0,       5583,       5583,        0,    84480, 0xa70842ca
0,       5625,       5625,        0,    84480, 0x379d8458
0,       5666,       5666,        0,    84480, 0xa14701cf
0,       5708,       5708,        0,    84480, 0xad1aa2b2
0,       5750,       5750,        0,    84480, 0xee28f320
0,       5791,       5791,        0,    84480, 0x505801e9
0,       5833,       5833,        0,    84480, 0x7947233b
0,       5875,       5875,        0,    84480, 0x3ce72a9d
0,       5916,       5916,        0,    84480, 0xa6834e64
0,       5958,       5958,        0,    84480, 0xfebf4d70
0,       6000,       6000,        0,    84480, 0x4a0775e2
0,       6041,       6041,        0,    84480, 0x9d7e945b
0,       6083,       6083,        0,    84480, 0xaa9eadd9
0,       6125,       6125,        0,    84480, 0xaa85c9b1
0,       6166,       6166,        0,    84480, 0xa005edaf
0,       6208,       6208,        0,    84480, 0x7fc4e5cc
0,       6250,       6250,        0,    84480, 0xb0f6e8d1
0,       6291,       6291,        0,    84480, 0x9ef9f330
0,       6333,       6333,        0,    84480, 0xbe14ff1f
0,       6375,       6375,        0,    84480, 0xd494048c
0,       6416,       6416,        0,    84480, 0x046166a7
0,       6458,       6458,        0,    84480, 0x052a09b2
0,       6500,       6500,        0,    84480, 0x71fff4ab
0,       6541,       6541,        0,    84480, 0xb9684e41
0,       6583,       6583,        0,    84480, 0x1ddce068
0,       6625,       6625,        0,    84480, 0xb9de300e
0,       6666,       6666,        0,    84480, 0x13962590
0,       6708,       6708,        0,    84480, 0xde79482f
0,       6750,       6750,        0,    84480, 0x7d1ca064
0,       6791,       6791,        0,    84480, 0x2676a064
